<svg xmlns="http://www.w3.org/2000/svg" width="512" height="511.469" viewBox="0 0 512 511.469">
  <g id="Group_11560" data-name="Group 11560" transform="translate(-960)">
    <g id="Group_11559" data-name="Group 11559" transform="translate(468.398 -192.75)" opacity="0.05">
      <path id="Path_13454" data-name="Path 13454" d="M992.515,638.369H503.024c-8.608-4-11.161-10.829-11.129-20.119.252-73.564.14-147.128.14-220.692v-6.433c2.363,1.078,4,1.767,5.6,2.56q119.616,59.532,239.162,119.21c7.785,3.9,14.32,3.861,22.067-.018Q878.78,452.833,998.94,393.26a39.976,39.976,0,0,1,4.565-1.636V627.379A23.06,23.06,0,0,1,992.515,638.369Z" transform="translate(0.097 65.851)" fill="#7811ff"/>
      <path id="Path_13456" data-name="Path 13456" d="M883.65,382.523c-10.1,4.925-20.21,9.848-30.694,14.957V316.222c9.2,6.924,17.874,13.253,26.275,19.921,1.947,1.545,2.972,4.251,4.418,6.422Z" transform="translate(119.952 40.986)" fill="#7811ff"/>
      <path id="Path_13457" data-name="Path 13457" d="M699.183,192.75q19.885,14.365,39.772,28.729l-.409.9H650.3l40.89-29.629Z" transform="translate(52.68)" fill="#7811ff"/>
      <path id="Path_13459" data-name="Path 13459" d="M732.923,237.75q88.147,0,176.292,0c12.669,0,18.155,5.526,18.156,18.288q.007,88.9.09,177.791c.008,3.7-1.148,5.516-4.454,7.155q-93.38,46.284-186.6,92.89c-2.913,1.456-5.014,1.25-7.8-.14q-93.023-46.45-186.177-92.644c-3.428-1.7-4.773-3.471-4.761-7.458q.234-89.145.111-178.291c0-11.924,5.76-17.589,17.849-17.59Q644.276,237.745,732.923,237.75Zm-.344,119.875q44.157,0,88.32.024c6.764.012,12.026-2.456,15.033-8.658,4.937-10.183-2.451-21.271-14.295-21.3-30.77-.087-61.541-.031-92.31-.031q-42.666,0-85.326-.019c-6.807-.012-11.993,2.671-14.905,8.867-4.789,10.184,2.765,21.066,14.664,21.1C673.367,357.674,702.972,357.625,732.579,357.626ZM687.57,387.594q-21.442,0-42.883.006c-10.108.017-16.941,6.037-16.986,14.9s6.808,15.045,16.835,15.054q43.132.038,86.267,0c10.008-.009,16.842-6.251,16.734-15.152-.1-8.713-6.847-14.774-16.585-14.8C716.492,387.568,702.032,387.594,687.57,387.594Z" transform="translate(15.292 14.937)" fill="#7811ff"/>
      <path id="Path_13460" data-name="Path 13460" d="M523,316.191v81.4c-6.406-3.165-12.166-6.87-18.464-8.927-10.255-3.35-14.18-9.375-12.6-20.177,1.027-7.006-.311-14.334.4-21.417.389-3.856,1.846-8.651,4.566-11.027C504.863,329.091,513.695,323.143,523,316.191Z" transform="translate(0 40.976)" fill="#7811ff"/>
    </g>
  </g>
</svg>
