<svg id="_x3C_Group_x3E__4_" xmlns="http://www.w3.org/2000/svg" width="35" height="35" viewBox="0 0 35 35">
  <g id="Group_11494" data-name="Group 11494" transform="translate(12.466 12.465)">
    <path id="Path_13395" data-name="Path 13395" d="M198.8,204.579l-5.983-5.982-2.9,2.9a1.025,1.025,0,0,1-1.7-.4l-5.8-17.4a1.025,1.025,0,0,1,1.3-1.3l17.4,5.8a1.025,1.025,0,0,1,.4,1.7l-2.9,2.9,5.982,5.983a1.025,1.025,0,0,1,0,1.45l-4.35,4.35A1.025,1.025,0,0,1,198.8,204.579Z" transform="translate(-182.362 -182.344)" fill="#01b81a"/>
  </g>
  <g id="Group_11495" data-name="Group 11495" transform="translate(12.305)">
    <path id="Path_13396" data-name="Path 13396" d="M181.025,8.2A1.025,1.025,0,0,1,180,7.178V1.025a1.025,1.025,0,0,1,2.051,0V7.178A1.025,1.025,0,0,1,181.025,8.2Z" transform="translate(-180 0)" fill="#01b81a" opacity="0.5"/>
  </g>
  <g id="Group_11496" data-name="Group 11496" transform="translate(3.604 3.604)">
    <path id="Path_13397" data-name="Path 13397" d="M57.371,58.821,53.02,54.47a1.025,1.025,0,0,1,1.45-1.45l4.351,4.351a1.025,1.025,0,0,1-1.45,1.45Z" transform="translate(-52.72 -52.72)" fill="#01b81a" opacity="0.5"/>
  </g>
  <g id="Group_11497" data-name="Group 11497" transform="translate(3.604 16.655)">
    <path id="Path_13398" data-name="Path 13398" d="M53.02,249.735a1.025,1.025,0,0,1,0-1.45l4.351-4.351a1.025,1.025,0,0,1,1.45,1.45l-4.351,4.351A1.025,1.025,0,0,1,53.02,249.735Z" transform="translate(-52.72 -243.634)" fill="#01b81a" opacity="0.5"/>
  </g>
  <g id="Group_11498" data-name="Group 11498" transform="translate(16.655 3.604)">
    <path id="Path_13399" data-name="Path 13399" d="M243.933,58.822a1.025,1.025,0,0,1,0-1.45l4.351-4.351a1.025,1.025,0,0,1,1.45,1.45l-4.351,4.351A1.025,1.025,0,0,1,243.933,58.822Z" transform="translate(-243.633 -52.721)" fill="#01b81a" opacity="0.5"/>
  </g>
  <g id="Group_11499" data-name="Group 11499" transform="translate(0 12.305)">
    <path id="Path_13400" data-name="Path 13400" d="M7.178,182.051H1.025a1.025,1.025,0,0,1,0-2.051H7.178a1.025,1.025,0,0,1,0,2.051Z" transform="translate(0 -180)" fill="#01b81a" opacity="0.5"/>
  </g>
</svg>
