<svg xmlns="http://www.w3.org/2000/svg" width="39.906" height="34.738" viewBox="0 0 39.906 34.738">
  <g id="customer" transform="translate(0 -32.721)">
    <circle id="Ellipse_3220" data-name="Ellipse 3220" cx="6.5" cy="6.5" r="6.5" transform="translate(13.906 32.721)" fill="#0af"/>
    <ellipse id="Ellipse_3221" data-name="Ellipse 3221" cx="4.5" cy="4" rx="4.5" ry="4" transform="translate(28.906 37.721)" fill="#0af" opacity="0.5"/>
    <ellipse id="Ellipse_3222" data-name="Ellipse 3222" cx="4.5" cy="4" rx="4.5" ry="4" transform="translate(1.906 37.721)" fill="#0af" opacity="0.5"/>
    <path id="Path_13438" data-name="Path 13438" d="M10.459,241.736c-1.687-1.383-3.216-1.2-5.167-1.2A5.283,5.283,0,0,0,0,245.8v8.512a2.29,2.29,0,0,0,2.292,2.284c5.458,0,4.8.1,4.8-.235C7.093,250.325,6.378,245.9,10.459,241.736Z" transform="translate(0 -191.685)" fill="#0af" opacity="0.5"/>
    <path id="Path_13439" data-name="Path 13439" d="M132.626,239.942c-3.408-.284-6.37,0-8.925,2.112-4.276,3.425-3.453,8.036-3.453,13.677a2.734,2.734,0,0,0,2.73,2.73c16.452,0,17.107.531,18.082-1.63.32-.731.232-.5.232-7.488C141.292,243.792,136.485,239.942,132.626,239.942Z" transform="translate(-110.817 -191.06)" fill="#0af"/>
    <path id="Path_13440" data-name="Path 13440" d="M382.977,240.537c-1.962,0-3.482-.181-5.167,1.2,4.05,4.135,3.366,8.257,3.366,14.621,0,.336-.546.235,4.719.235a2.372,2.372,0,0,0,2.374-2.365V245.8A5.283,5.283,0,0,0,382.977,240.537Z" transform="translate(-348.363 -191.686)" fill="#0af" opacity="0.5"/>
  </g>
</svg>
