<svg xmlns="http://www.w3.org/2000/svg" width="59.445" height="59.445" viewBox="0 0 59.445 59.445">
  <g id="mail" transform="translate(28.015 -1.707) rotate(45)">
    <path id="Path_13443" data-name="Path 13443" d="M59.469.426a4.823,4.823,0,0,0-2.019,1.212L36.957,22.13a4.832,4.832,0,0,0-1.211,2.019L55.515,20.2Zm0,0" transform="translate(-33.294 -0.388)" fill="#fa8b0c" opacity="0.5"/>
    <path id="Path_13444" data-name="Path 13444" d="M43.026,13.241,31.035,1.249A4.821,4.821,0,0,0,28.88,0L24.642,21.19A1.323,1.323,0,0,1,23.6,22.228L2.414,26.466a4.834,4.834,0,0,0,1.25,2.155l1.053,1.053,1.871,1.871,2.136,2.136,1.871,1.87,2.136,2.137L14.6,39.559l1.053,1.053a4.875,4.875,0,0,0,6.88,0L43.026,20.121a4.87,4.87,0,0,0,0-6.88Zm0,0" fill="#fa8b0c"/>
  </g>
</svg>
