<svg xmlns="http://www.w3.org/2000/svg" width="35.694" height="34.209" viewBox="0 0 35.694 34.209">
  <g id="paper-plane" transform="translate(-8.001 -7.833)">
    <path id="Path_963" data-name="Path 963" d="M13.833,19.575v6.9a1.115,1.115,0,0,0,.767,1.06,1.1,1.1,0,0,0,.348.056,1.12,1.12,0,0,0,.9-.455l4.034-5.493Z" transform="translate(7.18 14.454)" fill="#5840ff" opacity="0.5"/>
    <path id="Path_964" data-name="Path 964" d="M43.227,8.04a1.115,1.115,0,0,0-1.162-.08L8.6,25.435a1.117,1.117,0,0,0,.156,2.046l9.3,3.179L37.87,13.72,22.539,32.191l15.59,5.328a1.114,1.114,0,0,0,1.464-.892L43.682,9.111A1.113,1.113,0,0,0,43.227,8.04Z" transform="translate(0)" fill="#5840ff"/>
  </g>
</svg>
